<svg width="184" height="185" viewBox="0 0 184 185" fill="none" xmlns="http://www.w3.org/2000/svg">
<path d="M162.328 89.8198L94.4584 89.8198L94.4584 21.4011L94.4584 0.5L91.9 0.5C41.6411 0.5 0.746094 41.7257 0.746094 92.3949C0.746094 143.064 41.6411 184.286 91.9 184.286C142.167 184.286 183.058 143.064 183.058 92.3949L183.058 89.8198L162.328 89.8198ZM157.169 94.9701C155.816 130.087 127.06 158.238 91.9 158.238C55.886 158.238 26.5847 128.704 26.5847 92.3949C26.5847 56.9506 54.5102 27.9578 89.3455 26.6021L89.3455 94.9701L157.169 94.9701ZM91.9 179.136C44.4545 179.136 5.85507 140.224 5.85507 92.3949C5.85507 45.4267 43.0787 7.06058 89.3455 5.68925L89.3455 21.4635C51.6929 22.8309 21.4719 54.1106 21.4719 92.3949C21.4719 131.54 53.0648 163.393 91.9 163.393C129.877 163.393 160.906 132.931 162.259 94.9701L177.91 94.9701C176.55 141.615 138.491 179.136 91.9 179.136Z" fill="white"/>
<path d="M92.3174 101.254C92.4295 143.337 92.5338 182.63 92.5338 182.63" stroke="#FF9900" stroke-width="1.5"/>
<path d="M81.4734 92.8079C39.7282 92.9208 0.749972 93.026 0.749972 93.026" stroke="#FF9900" stroke-width="1.5"/>
<path d="M117.827 110.103C123.353 110.103 127.839 114.626 127.839 120.196C127.839 125.765 123.353 130.288 117.827 130.288C112.302 130.288 107.816 125.765 107.816 120.196C107.816 114.626 112.302 110.103 117.827 110.103Z" stroke="white" stroke-width="1.5"/>
<path d="M61.791 108.156C67.3162 108.156 71.8022 112.678 71.8022 118.248C71.8022 123.818 67.3162 128.34 61.791 128.34C56.2658 128.34 51.7798 123.818 51.7798 118.248C51.7798 112.678 56.2658 108.156 61.791 108.156Z" stroke="white" stroke-width="1.5"/>
<path d="M61.791 53.6138C67.3162 53.6138 71.8022 58.1361 71.8022 63.706C71.8022 69.2758 67.3162 73.7981 61.791 73.7981C56.2658 73.7981 51.7798 69.2758 51.7798 63.706C51.7798 58.1361 56.2658 53.6138 61.791 53.6138Z" stroke="white" stroke-width="1.5"/>
</svg>
